<?xml version="1.0" encoding="utf-8"?>
<svg viewBox="0 0 500 500" xmlns="http://www.w3.org/2000/svg" xmlns:bx="https://boxy-svg.com">
  <path d="M 533 526 m -195.922 0 a 195.922 195.922 0 1 0 391.844 0 a 195.922 195.922 0 1 0 -391.844 0 Z M 533 526 m -117.553 0 a 117.553 117.553 0 0 1 235.106 0 a 117.553 117.553 0 0 1 -235.106 0 Z" style="fill: rgb(0, 255, 255);" transform="matrix(0.601131, -0.799151, 0.799151, 0.601131, -490.755612, 359.752487)" bx:shape="ring 533 526 117.553 117.553 195.922 195.922 1@c30d4a2b"/>
  <g transform="matrix(0.214355, 0, 0, -0.214445, -153.860306, 632.436218)" style="">
    <path d="M 1725 2825 C 1374 2769 1071 2543 926 2229 C 861 2088 839 1991 833 1824 C 827 1664 839 1574 881 1445 C 1002 1079 1335 799 1720 739 C 1827 723 2044 733 2144 759 C 2529 861 2823 1164 2910 1550 C 2962 1784 2938 2011 2836 2225 C 2776 2352 2721 2431 2626 2526 C 2474 2678 2301 2771 2091 2815 C 1982 2838 1830 2842 1725 2825 Z M 2296 2412 C 2393 2349 2500 2226 2553 2118 C 2628 1964 2636 1895 2585 1844 C 2529 1788 2432 1828 2416 1914 C 2396 2022 2306 2154 2196 2234 C 2117 2293 2110 2303 2110 2357 C 2110 2382 2118 2400 2139 2421 C 2181 2462 2222 2460 2296 2412 Z M 1982 2050 C 2058 2022 2104 1979 2141 1905 C 2170 1846 2172 1834 2168 1768 C 2162 1684 2140 1633 2084 1578 C 1873 1367 1521 1577 1605 1865 C 1618 1911 1633 1935 1679 1981 C 1766 2068 1871 2092 1982 2050 Z M 1296 1671 C 1316 1659 1332 1636 1344 1604 C 1387 1489 1490 1356 1569 1316 C 1630 1284 1658 1213 1630 1159 C 1613 1129 1562 1107 1524 1114 C 1460 1127 1312 1257 1237 1367 C 1184 1446 1137 1566 1144 1605 C 1158 1676 1234 1709 1296 1671 Z" style="fill: rgb(95, 99, 104);"/>
    <path d="M 1794 1866 C 1764 1836 1760 1826 1760 1782 C 1760 1738 1765 1727 1794 1696 C 1824 1664 1833 1660 1878 1660 C 1917 1660 1935 1666 1959 1685 C 2021 1738 2021 1822 1959 1875 C 1935 1894 1917 1900 1878 1900 C 1834 1900 1824 1896 1794 1866 Z" style="fill: rgb(95, 99, 104);"/>
  </g>
</svg>