<?xml version="1.0" encoding="utf-8"?>
<svg viewBox="0 0 500 500" xmlns="http://www.w3.org/2000/svg">
  <g transform="matrix(0.121412, 0, 0, -0.121412, 21.442553, 509.561584)" fill="#000000" stroke="none" style="">
    <path d="M624 4155 c-202 -44 -377 -215 -429 -420 -13 -52 -15 -255 -15 -1595 0 -1340 2 -1543 15 -1595 53 -206 229 -377 434 -420 105 -22 2400 -22 2503 0 205 43 370 199 435 410 17 57 18 124 18 1300 l0 1240 -23 80 c-31 107 -85 206 -152 279 -30 33 -174 180 -320 327 -288 289 -329 321 -485 376 l-80 28 -920 2 c-736 1 -932 -1 -981 -12z m1879 -230 c122 -32 145 -50 464 -368 250 -249 307 -311 332 -361 64 -128 62 -62 59 -1387 l-3 -1204 -26 -55 c-39 -82 -90 -135 -167 -172 l-67 -33 -1180 -3 c-864 -2 -1195 0 -1235 8 -102 22 -187 87 -238 183 l-27 52 0 1555 0 1555 28 53 c49 92 131 159 224 181 21 5 430 9 908 10 742 1 879 -1 928 -14z" style="fill: rgb(95, 99, 104);"/>
    <path d="M1725 2825 c-351 -56 -654 -282 -799 -596 -65 -141 -87 -238 -93 -405 -6 -160 6 -250 48 -379 121 -366 454 -646 839 -706 107 -16 324 -6 424 20 385 102 679 405 766 791 52 234 28 461 -74 675 -60 127 -115 206 -210 301 -152 152 -325 245 -535 289 -109 23 -261 27 -366 10z m571 -413 c97 -63 204 -186 257 -294 75 -154 83 -223 32 -274 -56 -56 -153 -16 -169 70 -20 108 -110 240 -220 320 -79 59 -86 69 -86 123 0 25 8 43 29 64 42 41 83 39 157 -9z m-314 -362 c76 -28 122 -71 159 -145 29 -59 31 -71 27 -137 -6 -84 -28 -135 -84 -190 -211 -211 -563 -1 -479 287 13 46 28 70 74 116 87 87 192 111 303 69z m-686 -379 c20 -12 36 -35 48 -67 43 -115 146 -248 225 -288 61 -32 89 -103 61 -157 -17 -30 -68 -52 -106 -45 -64 13 -212 143 -287 253 -53 79 -100 199 -93 238 14 71 90 104 152 66z" style="fill: rgb(95, 99, 104);"/>
    <path d="M1794 1866 c-30 -30 -34 -40 -34 -84 0 -44 5 -55 34 -86 30 -32 39 -36 84 -36 39 0 57 6 81 25 62 53 62 137 0 190 -24 19 -42 25 -81 25 -44 0 -54 -4 -84 -34z" style="fill: rgb(95, 99, 104);"/>
  </g>
</svg>