<?xml version="1.0" encoding="utf-8"?>
<svg version="1.0" width="16pt" height="16pt" viewBox="9 7.041 16 16" preserveAspectRatio="xMidYMid meet" xmlns="http://www.w3.org/2000/svg">
  <g transform="matrix(0.010925, 0, 0, -0.010925, 10.623692, 23.860731)" fill="#000000" stroke="none">
    <path d="M 574 1527 C 572 1520 577 1496 586 1475 C 608 1422 609 1288 587 1237 C 561 1176 530 1139 492 1123 C 459 1109 455 1110 443 1126 C 436 1136 430 1168 430 1197 C 430 1226 426 1250 422 1250 C 412 1250 349 1183 323 1145 C 283 1086 260 1003 260 921 C 260 848 273 785 321 622 C 332 586 332 578 318 564 C 279 524 198 613 170 727 L 153 795 L 138 759 C 115 705 90 587 90 531 C 90 317 226.371 132.283 436 85 C 566.161 55.642 766.735 56.037 925 199 C 1096.592 354.001 1126 658 1008 897 C 980 955 945 999 936 989 C 933 986 936 964 941 940 C 967 829 920 702 838 661 C 816 650 805 649 785 658 C 750 674 752 709 795 835 C 884 1094 848 1328 698 1466 C 622 1537 585 1555 574 1527 Z" style="fill: rgb(95, 99, 104);"/>
  </g>
</svg>