<?xml version="1.0" encoding="utf-8"?>
<svg viewBox="0 0 500 500" xmlns="http://www.w3.org/2000/svg" xmlns:bx="https://boxy-svg.com">
  <path style="fill: rgb(95, 99, 104);" transform="matrix(4.600464, 0, 0, 4.600493, -1764.991577, -1967.437866)" d="M 414.149 530.828 A 54.342 54.342 0 0 1 385.581 496.327 L 427.516 484.865 A 10.868 10.868 0 0 0 433.23 491.765 Z" bx:shape="pie 438 482 10.868 54.342 206.034 254.714 1@f8ea1b96"/>
  <path style="fill: rgb(95, 99, 104);" transform="matrix(4.600464, 0, 0, 4.600493, -1764.991577, -1967.437866)" d="M 385.659 467.39 A 54.342 54.342 0 1 1 481.874 514.064 L 446.775 488.413 A 10.868 10.868 0 1 0 427.532 479.078 Z" bx:shape="pie 438 482 10.868 54.342 285.596 126.16 1@5fb7cc1a"/>
  <path style="fill: rgb(0, 255, 255);" transform="matrix(4.600464, 0, 0, 4.600493, -1764.991577, -1967.437866)" d="M 484.926 454.595 A 54.342 54.342 0 0 1 492.333 481.033 L 448.866 481.807 A 10.868 10.868 0 0 0 447.385 476.519 Z" bx:shape="pie 438 482 10.868 54.342 59.715 88.981 1@442ffb79"/>
  <path style="stroke: rgb(95, 99, 104); fill: none; stroke-dashoffset: -4px; stroke-width: 4.56474px;" transform="matrix(4.600464, 0, 0, 4.600493, -1764.991577, -1967.437866)" d="M 471.688 522.074 C 459.081 532.855 444.323 536.687 428.062 533.401 L 437.067 494.801 C 440.321 495.001 442.478 494.44 445.054 492.743 Z"/>
</svg>