<?xml version="1.0" encoding="utf-8"?>
<svg viewBox="0 0 500 500" xmlns="http://www.w3.org/2000/svg" xmlns:bx="https://boxy-svg.com">
  <rect style="fill: rgb(95, 99, 104);" width="151.355" height="151.355" rx="38.305" ry="38.305" x="5.413" y="323.94"/>
  <rect style="fill: rgb(95, 99, 104);" width="151.355" height="151.355" rx="38.305" ry="38.305" x="5.413" y="157.027"/>
  <rect style="fill: rgb(95, 99, 104);" width="145.385" height="145.385" rx="38.305" ry="38.305" x="-187.032" y="33.414"/>
  <rect style="fill: rgb(95, 99, 104);" width="151.355" height="151.355" rx="38.305" ry="38.305" x="174.322" y="323.496"/>
  <rect style="fill: rgb(95, 99, 104);" width="151.355" height="151.355" rx="38.305" ry="38.305" x="343.232" y="324.506"/>
  <path d="M 227.859 -0.92 H 286.424 L 286.424 -19.664 L 326.846 17.633 L 286.424 54.931 L 286.424 36.187 H 227.859 V -0.92 Z" style="fill: rgb(95, 99, 104);" transform="matrix(0.008403, 0.999965, -0.999965, 0.008403, 265.302643, -38.714314)" bx:shape="arrow 227.859 -19.664 98.987 74.594 37.108 40.422 0 1@4f41e829"/>
  <g transform="matrix(1.134173, 0, 0, 1.134173, -33.54248, -140.657379)" style="">
    <rect style="fill: rgb(95, 99, 104);" width="133.449" height="133.449" rx="38.305" ry="38.305" x="183.275" y="145.302"/>
    <rect style="fill: rgb(255, 255, 255);" width="101.379" height="101.379" rx="21.379" ry="21.379" x="199.31" y="161.337"/>
  </g>
  <path d="M 241.493 57.383 H 258.507 V 90.227 H 292.435 V 107.202 H 258.507 V 142.252 H 241.493 V 107.202 H 207.565 V 90.227 H 241.493 Z" style="fill: rgb(95, 99, 104);" bx:shape="cross 207.565 57.383 84.869 84.869 16.974 17.013 0.487 1@d605ea98"/>
</svg>