<?xml version="1.0" encoding="utf-8"?>
<svg viewBox="0 0 500 500" xmlns="http://www.w3.org/2000/svg" xmlns:bx="https://boxy-svg.com">
  <path style="fill: rgb(151, 95, 95);" transform="matrix(2.164981, -0.00003, 0.00003, 2.164981, 20.336193, -1877.411133)" d="M 341.674 467.88 L 378.326 467.88 L 376.713 499.677 A 119.497 119.497 0 0 1 404.687 507.173 L 419.189 478.829 L 450.931 497.155 L 433.636 523.886 A 119.497 119.497 0 0 1 454.114 544.364 L 480.845 527.069 L 499.171 558.811 L 470.827 573.313 A 119.497 119.497 0 0 1 478.323 601.287 L 510.12 599.674 L 510.12 636.326 L 478.323 634.713 A 119.497 119.497 0 0 1 470.827 662.687 L 499.171 677.189 L 480.845 708.931 L 454.114 691.636 A 119.497 119.497 0 0 1 433.636 712.114 L 450.931 738.845 L 419.189 757.171 L 404.687 728.827 A 119.497 119.497 0 0 1 376.713 736.323 L 378.326 768.12 L 341.674 768.12 L 343.287 736.323 A 119.497 119.497 0 0 1 315.313 728.827 L 300.811 757.171 L 269.069 738.845 L 286.364 712.114 A 119.497 119.497 0 0 1 265.886 691.636 L 239.155 708.931 L 220.829 677.189 L 249.173 662.687 A 119.497 119.497 0 0 1 241.677 634.713 L 209.88 636.326 L 209.88 599.674 L 241.677 601.287 A 119.497 119.497 0 0 1 249.173 573.313 L 220.829 558.811 L 239.155 527.069 L 265.886 544.364 A 119.497 119.497 0 0 1 286.364 523.886 L 269.069 497.155 L 300.811 478.829 L 315.313 507.173 A 119.497 119.497 0 0 1 343.287 499.677 Z M 360 573.571 A 44.429 44.429 0 0 0 360 662.429 A 44.429 44.429 0 0 0 360 573.571" bx:shape="cog 360 618 44.429 119.497 150.12 0.072 12 1@1b59c6c1"/>
  <path style="" transform="matrix(2.15051, 0.249893, -0.249893, 2.15051, 179.998093, -1958.44043)" d="M 360 467.88 L 360 467.88 L 388.883 510.207 A 111.595 111.595 0 0 1 388.883 510.207 L 435.06 487.992 L 435.06 487.992 L 438.91 539.09 A 111.595 111.595 0 0 1 438.91 539.09 L 490.008 542.94 L 490.008 542.94 L 467.793 589.117 A 111.595 111.595 0 0 1 467.793 589.117 L 510.12 618 L 510.12 618 L 467.793 646.883 A 111.595 111.595 0 0 1 467.793 646.883 L 490.008 693.06 L 490.008 693.06 L 438.91 696.91 A 111.595 111.595 0 0 1 438.91 696.91 L 435.06 748.008 L 435.06 748.008 L 388.883 725.793 A 111.595 111.595 0 0 1 388.883 725.793 L 360 768.12 L 360 768.12 L 331.117 725.793 A 111.595 111.595 0 0 1 331.117 725.793 L 284.94 748.008 L 284.94 748.008 L 281.09 696.91 A 111.595 111.595 0 0 1 281.09 696.91 L 229.992 693.06 L 229.992 693.06 L 252.207 646.883 A 111.595 111.595 0 0 1 252.207 646.883 L 209.88 618 L 209.88 618 L 252.207 589.117 A 111.595 111.595 0 0 1 252.207 589.117 L 229.992 542.94 L 229.992 542.94 L 281.09 539.09 A 111.595 111.595 0 0 1 281.09 539.09 L 284.94 487.992 L 284.94 487.992 L 331.117 510.207 A 111.595 111.595 0 0 1 331.117 510.207 Z M 360 573.571 A 44.429 44.429 0 0 0 360 662.429 A 44.429 44.429 0 0 0 360 573.571" bx:shape="cog 360 618 44.429 111.595 150.12 1 12 1@8b3dcd88"/>
  <g transform="matrix(0.917282, 0.298095, -0.298095, 0.917282, 82.531387, -43.729328)" style="" bx:origin="0.494 0.564">
    <path d="M 473 623 m -191.159 0 a 191.159 191.159 0 1 0 382.318 0 a 191.159 191.159 0 1 0 -382.318 0 Z M 473 623 m -81.022 0 a 81.022 81.022 0 0 1 162.044 0 a 81.022 81.022 0 0 1 -162.044 0 Z" style="" transform="matrix(1, 0.000064, -0.000064, 1, -222.960128, -314.700896)" bx:shape="ring 473 623 81.022 81.022 191.159 191.159 1@3c69bdd1" bx:origin="0.489 0.499"/>
    <path d="M 158.281 5.932 C 163.21 5.779 167.398 8.772 171.951 10.213 C 183.071 6.582 185.603 11.555 191.062 13.581 C 203.181 11.021 206.861 16.595 212.678 22.48 L 219.435 22.344 C 237.709 33.114 246.769 55.047 249.988 66.324 C 253.205 55.048 262.286 33.116 280.562 22.344 L 287.322 22.48 C 293.128 16.595 296.811 11.021 308.928 13.581 C 314.388 11.555 316.929 6.582 328.041 10.213 C 334.979 8.018 341.05 2.213 350.227 9.456 C 357.956 6.474 365.449 5.44 372.15 11.507 C 382.498 10.164 385.86 12.935 388.406 16.168 C 390.684 16.12 405.409 13.833 412.157 23.908 C 429.134 21.898 434.495 33.889 428.42 45.071 C 431.883 50.436 435.48 55.737 427.371 65.961 C 430.239 71.659 428.462 77.841 421.706 85.319 C 423.489 93.328 419.985 98.978 413.703 103.383 C 414.877 114.343 403.651 120.715 400.298 122.986 C 399.011 129.372 396.328 135.397 383.505 138.73 C 381.393 148.248 373.684 149.892 366.223 151.888 C 370.332 154.278 129.673 154.281 133.779 151.894 C 126.315 149.898 118.61 148.254 116.495 138.736 C 103.673 135.406 100.989 129.377 99.702 122.992 C 96.351 120.722 85.124 114.35 86.3 103.389 C 80.015 98.985 76.512 93.336 78.293 85.325 C 71.538 77.847 69.76 71.665 72.628 65.969 C 64.522 55.739 68.114 50.437 71.581 45.073 C 65.503 33.891 70.868 21.902 87.837 23.909 C 94.592 13.834 109.316 16.124 111.588 16.17 C 114.136 12.937 117.499 10.167 127.846 11.508 C 134.548 5.442 142.043 6.478 149.77 9.457 C 152.926 6.968 155.707 6.014 158.289 5.934 L 158.281 5.932 Z" style="" bx:origin="0.489 2.043"/>
    <path d="M 121.354 53.319 C 169.843 78.318 198.034 98.542 213.478 115.765 C 205.569 147.464 164.31 148.91 149.224 148.021 C 152.313 146.584 154.891 144.861 155.804 142.216 C 152.018 139.525 138.597 141.931 129.226 136.667 C 132.825 135.921 134.509 135.194 136.192 132.538 C 127.34 129.716 117.803 127.281 112.194 122.604 C 115.22 122.641 118.047 123.281 122 120.54 C 114.07 116.267 105.609 112.879 99.035 106.347 C 103.134 106.247 107.554 106.306 108.84 104.799 C 101.583 100.302 95.458 95.303 90.39 89.833 C 96.127 90.525 98.55 89.929 99.938 88.93 C 94.451 83.31 87.507 78.565 84.197 71.64 C 88.456 73.11 92.354 73.671 95.163 71.512 C 93.299 67.307 85.313 64.825 80.712 54.996 C 85.199 55.433 89.954 55.974 90.905 54.996 C 88.825 46.516 85.252 41.748 81.75 36.808 C 91.347 36.666 105.89 36.845 105.233 36.034 L 99.297 29.97 C 108.672 27.446 118.266 30.375 125.231 32.551 C 128.357 30.083 125.174 26.964 121.359 23.778 C 129.327 24.842 136.527 26.673 143.036 29.195 C 146.511 26.057 140.778 22.917 138.003 19.778 C 150.313 22.112 155.528 25.395 160.71 28.68 C 164.471 25.077 160.926 22.012 158.388 18.875 C 167.671 22.312 172.452 26.75 177.483 31.131 C 179.19 28.829 181.819 27.14 178.644 21.585 C 185.235 25.382 190.199 29.859 193.87 34.873 C 197.948 32.278 196.299 28.728 196.321 25.454 C 203.17 31.025 207.517 36.954 212.837 42.744 C 213.908 41.962 214.846 39.317 215.676 35.131 C 232.013 50.981 255.1 90.907 221.609 106.737 C 193.108 83.23 159.066 66.143 121.344 53.325 L 121.354 53.319 M 378.642 53.319 C 330.158 78.321 301.969 98.538 286.526 115.765 C 294.434 147.464 335.692 148.91 350.778 148.021 C 347.69 146.584 345.112 144.861 344.199 142.216 C 347.984 139.525 361.407 141.931 370.776 136.667 C 367.176 135.921 365.493 135.194 363.81 132.538 C 372.663 129.716 382.2 127.281 387.807 122.604 C 384.782 122.641 381.956 123.281 378.002 120.54 C 385.933 116.267 394.395 112.879 400.969 106.347 C 396.868 106.247 392.448 106.306 391.164 104.799 C 398.421 100.302 404.545 95.303 409.613 89.833 C 403.874 90.525 401.453 89.929 400.066 88.93 C 405.551 83.31 412.496 78.565 415.806 71.64 C 411.546 73.11 407.649 73.671 404.839 71.512 C 406.703 67.307 414.692 64.825 419.289 54.996 C 414.806 55.433 410.048 55.974 409.097 54.996 C 411.182 46.513 414.754 41.744 418.256 36.805 C 408.659 36.662 394.117 36.842 394.774 36.032 L 400.71 29.967 C 391.334 27.443 381.741 30.373 374.776 32.547 C 371.65 30.081 374.831 26.96 378.645 23.775 C 370.679 24.837 363.478 26.669 356.971 29.193 C 353.494 26.055 359.229 22.914 362.004 19.775 C 349.693 22.109 344.479 25.391 339.295 28.678 C 335.534 25.073 339.081 22.01 341.617 18.872 C 332.336 22.309 327.555 26.748 322.522 31.129 C 320.816 28.826 318.187 27.137 321.36 21.581 C 314.772 25.379 309.808 29.855 306.137 34.871 C 302.059 32.274 303.707 28.723 303.685 25.451 C 296.835 31.022 292.489 36.949 287.169 42.74 C 286.097 41.959 285.161 39.314 284.331 35.126 C 267.993 50.979 244.906 90.905 278.397 106.735 C 306.884 83.221 340.923 66.137 378.648 53.319 L 378.642 53.319" style="fill: rgb(106, 191, 75);" bx:origin="0.488 2.235"/>
    <path style="visibility: hidden; fill: rgb(188, 17, 66);" d="M 395.695 321.534 C 395.546 323.167 395.375 324.772 395.175 326.398 L 394.848 329.018 L 420.347 337.06 L 416.275 349.979 C 414.211 356.78 410.383 362.136 405.068 366.35 C 399.776 370.593 393.691 373.135 386.6 373.635 L 386.596 373.636 C 385.325 373.743 384.142 373.773 382.872 373.732 L 380.88 373.671 L 379.961 375.443 C 378.919 377.457 377.85 379.41 376.719 381.37 L 375.396 383.66 L 395.781 400.985 L 387.004 411.307 C 381.068 418.483 373.155 422.53 363.863 423.164 L 363.851 423.165 C 357.873 423.705 352.339 422.711 347.004 420.215 L 345.188 419.381 L 343.65 420.662 C 342.387 421.716 341.129 422.731 339.834 423.74 L 337.749 425.363 L 350.098 449.082 L 338.091 455.334 C 333.957 457.522 329.801 458.691 325.155 459.068 C 314.534 459.929 304.777 456.183 297.712 448.516 L 296.345 447.064 L 294.445 447.668 C 292.274 448.357 290.126 448.984 287.919 449.572 L 285.362 450.255 L 287.525 476.91 C 282.675 477.304 273.948 478.012 273.905 478.016 C 266.009 478.726 258.984 476.752 252.804 472.692 C 246.574 468.73 241.989 463.185 239.431 456.032 L 238.738 454.146 L 236.739 453.968 C 235.107 453.819 233.501 453.648 231.874 453.447 L 229.253 453.121 L 221.213 478.622 L 208.292 474.548 C 199.373 471.865 192.563 466.136 188.368 457.819 C 185.552 452.52 184.315 447.034 184.542 441.152 L 184.606 439.153 L 182.83 438.234 C 180.816 437.193 178.86 436.122 176.901 434.993 L 174.61 433.673 L 157.29 454.054 L 146.965 445.278 C 139.794 439.347 135.864 431.431 135.11 422.136 C 134.623 416.145 135.564 410.607 138.059 405.276 L 138.891 403.457 L 137.61 401.921 C 136.558 400.659 135.542 399.401 134.533 398.107 L 132.909 396.023 L 109.192 408.372 L 102.934 396.358 C 98.528 388.149 97.76 379.285 100.675 370.442 C 102.429 364.708 105.427 359.956 109.743 355.958 L 111.2 354.59 L 111.05 354.116 L 110.596 352.687 C 109.912 350.528 109.287 348.387 108.702 346.192 L 108.021 343.635 L 81.363 345.798 L 80.267 332.295 C 79.529 324.374 81.492 317.325 85.552 311.123 C 89.515 304.869 95.069 300.27 102.244 297.703 L 104.125 297.013 L 104.261 295.516 L 104.307 295.011 C 104.454 293.376 104.625 291.774 104.826 290.147 L 105.152 287.527 L 79.652 279.486 L 83.725 266.569 C 85.788 259.766 89.612 254.397 94.934 250.193 C 100.21 245.943 106.305 243.487 113.399 242.912 C 114.673 242.808 115.86 242.773 117.128 242.815 L 119.123 242.874 L 120.039 241.102 C 121.08 239.089 122.15 237.135 123.28 235.178 L 124.605 232.89 L 104.219 215.563 L 112.995 205.239 C 118.928 198.067 126.843 194.137 136.138 193.382 C 142.129 192.896 147.669 193.836 152.997 196.331 L 154.815 197.166 L 155.967 196.204 L 156.355 195.884 C 157.613 194.831 158.871 193.814 160.166 192.809 L 162.25 191.184 L 149.901 167.464 L 161.914 161.212 C 166.043 159.024 170.197 157.855 174.844 157.478 C 185.465 156.617 195.222 160.362 202.288 168.031 L 203.654 169.485 L 205.554 168.876 C 207.722 168.189 209.873 167.563 212.08 166.974 L 214.637 166.294 L 212.474 139.634 L 225.977 138.539 C 233.899 137.801 240.946 139.765 247.148 143.823 C 253.403 147.785 258.005 153.341 260.569 160.517 L 261.26 162.399 L 263.262 162.579 C 264.894 162.728 266.498 162.898 268.125 163.1 L 270.745 163.426 L 278.787 137.926 L 291.707 141.998 C 300.628 144.683 307.437 150.411 311.631 158.727 C 314.449 164.025 315.684 169.513 315.458 175.395 L 315.394 177.394 L 317.169 178.313 C 319.183 179.353 321.138 180.423 323.097 181.554 L 325.387 182.878 L 342.711 162.492 L 353.034 171.268 C 360.205 177.2 364.136 185.114 364.891 194.411 C 365.317 199.668 364.639 204.532 362.758 209.328 C 362.503 209.999 362.241 210.618 361.939 211.275 L 361.11 213.09 L 362.069 214.24 L 362.389 214.626 C 363.443 215.884 364.457 217.144 365.467 218.439 L 367.09 220.523 L 390.809 208.174 L 397.066 220.189 C 401.472 228.398 402.24 237.261 399.324 246.105 C 397.573 251.839 394.569 256.593 390.252 260.591 L 388.8 261.957 L 388.949 262.434 L 389.101 262.908 L 389.254 263.386 L 389.406 263.861 C 390.087 266.017 390.712 268.158 391.299 270.353 L 391.98 272.909 L 418.636 270.746 L 419.732 284.249 C 420.47 292.171 418.508 299.218 414.448 305.421 C 410.487 311.676 404.932 316.277 397.757 318.84 L 395.873 319.533 Z M 250 196.77 C 188.419 196.77 138.498 246.691 138.498 308.272 C 138.498 369.853 188.419 419.774 250 419.774 C 311.581 419.774 361.502 369.853 361.502 308.272 C 361.502 246.691 311.581 196.77 250 196.77 Z" bx:origin="0.488 0.499"/>
    <path d="M 473 623 m -172.407 0 a 172.407 172.407 0 1 0 344.814 0 a 172.407 172.407 0 1 0 -344.814 0 Z M 473 623 m -111.051 0 a 111.051 111.051 0 0 1 222.102 0 a 111.051 111.051 0 0 1 -222.102 0 Z" style="visibility: hidden; fill: rgb(188, 17, 66);" transform="matrix(1, 0.000064, -0.000064, 1, -222.960128, -314.700896)" bx:shape="ring 473 623 111.051 111.051 172.407 172.407 1@fa474ad6" bx:origin="0.488 0.499"/>
    <path style="visibility: hidden; fill: rgb(188, 17, 66);" d="M 285.894 181.877 C 290.372 183.15 294.782 184.66 299.107 186.404 L 316.187 151.645 C 329.599 157.308 342.082 164.607 353.408 173.281 L 344.298 216.787 C 347.539 220.127 350.603 223.641 353.476 227.314 L 385.667 205.739 C 394.307 217.162 401.522 229.698 407.081 243.081 L 377.421 276.222 C 378.557 280.735 379.454 285.31 380.106 289.928 L 418.811 287.336 C 420.693 302.059 420.642 316.449 418.887 330.305 L 376.39 344.256 C 375.117 348.733 373.606 353.143 371.862 357.468 L 406.865 374.668 C 401.179 388.003 393.824 400.46 385.085 411.79 L 341.481 402.658 C 338.14 405.9 334.626 408.964 330.953 411.838 L 352.539 444.046 C 341.115 452.703 328.606 459.953 315.3 465.544 L 282.045 435.782 C 277.531 436.919 272.956 437.816 268.339 438.468 L 270.945 477.389 C 256.965 479.118 242.538 479.097 227.915 477.106 L 214.011 434.751 C 209.534 433.478 205.123 431.968 200.798 430.224 L 183.721 464.976 C 170.309 459.304 157.828 451.996 146.505 443.312 L 155.608 399.842 C 152.367 396.501 149.303 392.987 146.429 389.315 L 114.285 410.858 C 105.646 399.425 98.434 386.879 92.88 373.485 L 122.484 340.406 C 121.348 335.892 120.451 331.317 119.799 326.7 L 81.183 329.285 C 79.303 314.553 79.359 300.154 81.121 286.289 L 123.516 272.372 C 124.788 267.895 126.299 263.484 128.043 259.16 L 93.13 242.004 C 98.818 228.66 106.177 216.195 114.923 204.86 L 158.425 213.969 C 161.766 210.728 165.28 207.664 168.952 204.79 L 147.412 172.65 C 158.838 163.986 171.35 156.729 184.66 151.133 L 217.861 180.846 C 222.375 179.709 226.949 178.812 231.567 178.16 L 228.964 139.282 C 242.944 137.545 257.373 137.558 271.997 139.542 Z M 313.798 381.343 C 370.003 332.231 351.966 240.692 281.332 216.573 C 248.55 205.379 212.286 212.524 186.202 235.317 C 129.996 284.429 148.033 375.968 218.668 400.087 C 251.45 411.281 287.713 404.136 313.798 381.343 Z" bx:origin="0.488 0.499"/>
    <path style="visibility: hidden; fill: rgb(188, 17, 66);" d="M 291.371 176.427 C 294.871 177.523 298.329 178.758 301.736 180.131 L 316.307 151.675 C 329.552 157.308 342.069 164.581 353.52 173.299 L 351.839 214.765 C 354.322 217.463 356.698 220.26 358.961 223.15 L 385.965 205.694 C 394.555 216.969 401.795 229.421 407.373 242.872 L 385.019 278.175 C 385.819 281.751 386.477 285.361 386.991 288.995 L 418.976 287.373 C 419.792 294.206 420.213 301.2 420.213 308.341 C 420.212 315.776 419.726 323.142 418.776 330.4 L 382.02 349.664 C 380.923 353.161 379.687 356.615 378.313 360.019 L 406.773 374.567 C 401.159 387.825 393.882 400.325 385.118 411.756 L 343.648 410.078 C 340.948 412.558 338.148 414.932 335.255 417.194 L 352.622 444.011 C 347.066 448.204 341.218 452.083 335.097 455.613 C 328.588 459.367 321.985 462.636 315.322 465.44 L 280.181 443.228 C 276.602 444.027 272.989 444.685 269.351 445.199 L 270.984 477.35 C 256.516 479.166 242.09 479.043 228.018 477.161 L 208.628 440.232 C 205.128 439.136 201.671 437.901 198.264 436.529 L 183.692 464.985 C 170.447 459.351 157.931 452.078 146.479 443.36 L 148.161 401.894 C 145.678 399.197 143.302 396.4 141.038 393.509 L 114.034 410.966 C 105.444 399.691 98.204 387.238 92.626 373.787 L 114.981 338.485 C 114.181 334.908 113.522 331.298 113.008 327.664 L 81.023 329.286 C 80.207 322.453 79.786 315.459 79.786 308.319 C 79.787 300.884 80.273 293.518 81.223 286.259 L 117.979 266.995 C 119.076 263.498 120.312 260.044 121.686 256.64 L 93.227 242.093 C 98.84 228.834 106.118 216.334 114.881 204.904 L 156.351 206.582 C 159.051 204.101 161.851 201.727 164.744 199.466 L 147.378 172.649 C 152.934 168.455 158.781 164.577 164.902 161.047 C 171.412 157.293 178.014 154.023 184.678 151.22 L 219.818 173.431 C 223.398 172.632 227.011 171.974 230.648 171.461 L 229.015 139.31 C 243.483 137.494 257.909 137.616 271.981 139.498 Z M 197.68 398.856 C 267.429 439.096 354.623 388.807 354.628 308.336 C 354.63 270.99 334.691 236.479 302.32 217.804 C 232.57 177.564 145.377 227.852 145.371 308.323 C 145.369 345.67 165.309 380.181 197.68 398.856 Z" bx:origin="0.488 0.499"/>
    <path style="fill: rgb(195, 28, 74);" d="M 283.651 441.787 C 287.151 440.691 290.609 439.456 294.016 438.083 L 308.147 465.68 L 309.518 466.14 C 316.044 463.319 322.39 460.099 328.517 456.504 L 339.504 441.278 L 344.811 420.521 L 344.119 403.449 C 346.602 400.751 348.978 397.954 351.241 395.064 L 377.24 411.869 L 379.009 411.511 C 383.054 406.117 386.793 400.458 390.191 394.554 L 392.176 375.061 L 386.378 354.375 L 377.3 340.038 C 378.1 336.462 378.758 332.852 379.272 329.218 L 410.09 330.781 L 411.398 329.626 C 412.121 323.179 412.494 316.591 412.494 309.872 C 412.494 309.503 412.493 309.134 412.49 308.766 L 404.682 291.38 L 389.44 276.483 L 374.301 268.549 C 373.204 265.052 371.968 261.598 370.594 258.194 L 398.023 244.173 L 398.575 242.527 C 395.789 236.075 392.607 229.805 389.05 223.755 L 373.674 212.66 L 353.239 207.435 L 335.928 208.135 C 333.228 205.655 330.428 203.281 327.535 201.019 L 344.305 175.124 L 343.978 173.51 C 338.699 169.581 333.16 165.935 327.377 162.6 C 326.963 162.361 326.549 162.125 326.135 161.89 L 307.457 159.988 L 287.21 165.663 L 272.461 174.985 C 268.882 174.186 265.269 173.528 261.631 173.014 L 263.201 142.103 L 261.966 140.705 C 255.084 139.896 248.214 139.525 241.388 139.572 L 223.776 147.482 L 208.965 162.637 L 200.908 177.981 C 197.408 179.077 193.951 180.312 190.544 181.684 L 176.413 154.089 L 175.039 153.628 C 168.514 156.449 162.168 159.669 156.043 163.264 L 145.054 178.492 L 139.748 199.242 L 140.441 216.319 C 137.958 219.016 135.582 221.813 133.318 224.704 L 107.321 207.898 L 105.551 208.257 C 101.505 213.651 97.767 219.309 94.369 225.214 L 92.384 244.708 L 98.179 265.386 L 107.261 279.728 C 106.461 283.305 105.802 286.915 105.288 290.549 L 74.471 288.986 L 73.162 290.142 C 72.439 296.588 72.066 303.177 72.066 309.894 C 72.066 310.264 72.067 310.633 72.07 311.003 L 79.877 328.387 L 95.118 343.282 L 110.259 351.218 C 111.356 354.715 112.592 358.169 113.966 361.573 L 86.537 375.594 L 85.985 377.238 C 88.772 383.692 91.954 389.962 95.511 396.014 L 110.888 407.11 L 131.313 412.333 L 148.631 411.632 C 151.331 414.113 154.131 416.487 157.024 418.748 L 140.254 444.644 L 140.581 446.257 C 145.86 450.186 151.399 453.832 157.182 457.167 C 157.596 457.406 158.011 457.643 158.426 457.878 L 177.104 459.78 L 197.347 454.107 L 212.098 444.783 C 215.678 445.582 219.291 446.24 222.928 446.753 L 221.358 477.667 L 222.59 479.061 C 229.473 479.871 236.345 480.242 243.172 480.195 L 260.785 472.285 L 275.593 457.133 Z M 189.96 219.357 C 259.709 179.117 346.903 229.406 346.908 309.877 C 346.91 347.223 326.971 381.734 294.6 400.41 C 224.85 440.65 137.657 390.361 137.651 309.89 C 137.649 272.543 157.589 238.032 189.96 219.357 Z" transform="matrix(-0.845293, 0.534303, -0.534303, -0.845293, 620.369532, 440.820805)" bx:origin="0.512 0.501"/>
  </g>
  <path style="" transform="matrix(1.281148, -0.032367, 0.032367, 1.281148, 1114.490967, -1368.568848)" d="M 360 472.704 L 360 472.704 L 390.218 505.226 A 116.752 116.752 0 0 1 390.218 505.226 L 432.648 492.17 L 432.648 492.17 L 442.556 535.444 A 116.752 116.752 0 0 1 442.556 535.444 L 485.83 545.352 L 485.83 545.352 L 472.774 587.782 A 116.752 116.752 0 0 1 472.774 587.782 L 505.296 618 L 505.296 618 L 472.774 648.218 A 116.752 116.752 0 0 1 472.774 648.218 L 485.83 690.648 L 485.83 690.648 L 442.556 700.556 A 116.752 116.752 0 0 1 442.556 700.556 L 432.648 743.83 L 432.648 743.83 L 390.218 730.774 A 116.752 116.752 0 0 1 390.218 730.774 L 360 763.296 L 360 763.296 L 329.782 730.774 A 116.752 116.752 0 0 1 329.782 730.774 L 287.352 743.83 L 287.352 743.83 L 277.444 700.556 A 116.752 116.752 0 0 1 277.444 700.556 L 234.17 690.648 L 234.17 690.648 L 247.226 648.218 A 116.752 116.752 0 0 1 247.226 648.218 L 214.704 618 L 214.704 618 L 247.226 587.782 A 116.752 116.752 0 0 1 247.226 587.782 L 234.17 545.352 L 234.17 545.352 L 277.444 535.444 A 116.752 116.752 0 0 1 277.444 535.444 L 287.352 492.17 L 287.352 492.17 L 329.782 505.226 A 116.752 116.752 0 0 1 329.782 505.226 Z M 360 415.965 A 202.035 202.035 0 0 0 360 820.035 A 202.035 202.035 0 0 0 360 415.965" bx:shape="cog 360 618 202.035 116.752 145.296 1 12 1@17722d0a"/>
  <path style="fill: rgb(38, 136, 43);" transform="matrix(1.270351, -0.169107, 0.169107, 1.270351, 1033.872803, -1312.669678)" d="M 360 475.074 L 360 475.074 L 392.847 495.414 A 126.91 126.91 0 0 1 392.847 495.414 L 431.463 494.222 L 431.463 494.222 L 449.739 528.261 A 126.91 126.91 0 0 1 449.739 528.261 L 483.778 546.537 L 483.778 546.537 L 482.586 585.153 A 126.91 126.91 0 0 1 482.586 585.153 L 502.926 618 L 502.926 618 L 482.586 650.847 A 126.91 126.91 0 0 1 482.586 650.847 L 483.778 689.463 L 483.778 689.463 L 449.739 707.739 A 126.91 126.91 0 0 1 449.739 707.739 L 431.463 741.778 L 431.463 741.778 L 392.847 740.586 A 126.91 126.91 0 0 1 392.847 740.586 L 360 760.926 L 360 760.926 L 327.153 740.586 A 126.91 126.91 0 0 1 327.153 740.586 L 288.537 741.778 L 288.537 741.778 L 270.261 707.739 A 126.91 126.91 0 0 1 270.261 707.739 L 236.222 689.463 L 236.222 689.463 L 237.414 650.847 A 126.91 126.91 0 0 1 237.414 650.847 L 217.074 618 L 217.074 618 L 237.414 585.153 A 126.91 126.91 0 0 1 237.414 585.153 L 236.222 546.537 L 236.222 546.537 L 270.261 528.261 A 126.91 126.91 0 0 1 270.261 528.261 L 288.537 494.222 L 288.537 494.222 L 327.153 495.414 A 126.91 126.91 0 0 1 327.153 495.414 Z M 360 415.965 A 202.035 202.035 0 0 0 360 820.035 A 202.035 202.035 0 0 0 360 415.965" bx:shape="cog 360 618 202.035 126.91 142.926 1 12 1@4fb6934c"/>
</svg>