<?xml version="1.0" encoding="utf-8"?>
<svg version="1.0" width="256.000000pt" height="256.000000pt" viewBox="0 0 256.000000 256.000000" preserveAspectRatio="xMidYMid meet" xmlns="http://www.w3.org/2000/svg">
  <path d="M 81.048 168.291 L 117.268 168.291 L 117.268 244.716 L 81.048 244.716 Z M 223.375 0 L 255.239 0 L 256 0.019 L 256 256 L 198.289 256 L 198.289 166.616 C 198.289 161.429 194.082 157.224 188.892 157.224 L 69.456 157.224 C 64.266 157.224 60.059 161.429 60.059 166.616 L 60.059 256 L 20.568 256 L 0 235.443 L 0 1.924 C 0.051 0.888 0.102 0.33 0.156 0.29 C 0.232 0.188 0.57 0.09 1.13 0 L 32.648 0 L 32.648 114.565 C 32.648 119.969 37.031 124.349 42.437 124.349 L 213.562 124.349 C 218.968 124.349 223.351 119.969 223.351 114.565 L 223.351 3.54 Z" style="fill: rgb(95, 99, 104);"/>
</svg>