<?xml version="1.0" encoding="utf-8"?>
<svg version="1.0" width="626.000000pt" height="626.000000pt" viewBox="0 0 626.000000 626.000000" preserveAspectRatio="xMidYMid meet" xmlns="http://www.w3.org/2000/svg">
  <g transform="translate(0.000000,626.000000) scale(0.100000,-0.100000)" fill="#000000" stroke="none">
    <path d="M2238 5655 c-88 -24 -165 -83 -219 -167 -51 -79 -59 -129 -59 -375 l0 -223 -807 0 c-555 0 -821 -4 -848 -11 -152 -42 -252 -142 -294 -294 -7 -26 -11 -185 -11 -452 l0 -413 3130 0 3130 0 0 413 c0 267 -4 426 -11 452 -42 152 -142 252 -294 294 -27 7 -293 11 -847 11 l-808 0 0 223 c0 246 -8 296 -59 375 -55 86 -131 143 -224 168 -74 20 -1707 19 -1779 -1z m1672 -570 l0 -195 -780 0 -780 0 0 195 0 195 780 0 780 0 0 -195z" style="fill: rgb(95, 99, 104);"/>
    <path d="M0 2127 c0 -1286 -2 -1235 50 -1337 23 -45 87 -112 138 -144 96 -60 -120 -56 2942 -56 3062 0 2846 -4 2942 56 51 32 115 99 138 144 52 102 50 51 50 1337 l0 1193 -974 0 -974 0 -5 -222 c-3 -173 -8 -235 -22 -278 -37 -116 -124 -208 -241 -253 l-59 -22 -855 0 -855 0 -58 22 c-80 31 -149 83 -190 146 -60 90 -69 136 -74 385 l-5 222 -974 0 -974 0 0 -1193z" style="fill: rgb(95, 99, 104);"/>
    <path d="M2350 3130 l0 -190 780 0 780 0 0 190 0 190 -780 0 -780 0 0 -190z" style="fill: rgb(95, 99, 104);"/>
  </g>
</svg>