<?xml version="1.0" encoding="utf-8"?>
<svg version="1.0" width="512.000000pt" height="512.000000pt" viewBox="0 0 512.000000 512.000000" preserveAspectRatio="xMidYMid meet" xmlns="http://www.w3.org/2000/svg" xmlns:bx="https://boxy-svg.com">
  <path d="M 124.508 174.692 C 197.628 174.634 194.708 174.517 202.008 178.197 C 208.899 181.701 214.272 188.767 216.2 196.944 C 217.484 202.492 217.484 415.426 216.2 420.974 C 213.63 431.895 205.687 439.838 194.766 442.407 C 189.393 443.634 33.109 443.692 27.211 442.466 C 15.998 440.071 7.704 431.778 5.31 420.565 C 4.726 417.703 4.492 411.513 4.492 396.036 L 4.492 375.42 L 9.281 370.339 C 11.909 367.594 16.406 362.922 19.21 360.06 L 24.349 354.746 L 24.232 338.744 L 24.057 322.683 L 15.297 322.508 C 7.179 322.391 6.478 322.274 5.544 321.165 C 4.609 320.055 4.492 318.245 4.492 302.126 L 4.492 284.371 L 7.588 281.043 C 9.223 279.232 15.53 272.516 21.604 266.208 L 32.525 254.645 L 32.525 227.021 C 32.525 197.119 32.642 195.951 35.796 189.702 C 39.183 183.044 47.651 176.737 55.01 175.335 C 56.762 174.984 85.087 174.751 124.508 174.692 Z M 58.806 245.885 L 78.663 245.885 L 78.663 202.667 L 58.806 202.667 Z M 88.11 245.937 L 107.28 245.937 L 107.28 196.976 L 88.11 196.976 Z M 116.624 245.929 L 135.897 245.929 L 135.897 202.667 L 116.624 202.667 Z M 145.344 245.811 L 164.934 245.811 L 164.934 196.92 L 145.344 196.92 Z M 173.838 245.885 L 193.715 245.885 L 193.715 202.62 L 173.838 202.62 Z" style="fill: rgb(95, 99, 104);"/>
  <g transform="matrix(0, -7.893988, 8.342878, 0, -551.459595, 524.961792)" style="">
    <path style="fill: rgb(95, 99, 104);" d="M 44.527 105.723 H 59.694 A 1.646 1.646 0 0 1 61.34 107.369 V 122.053 A 1.646 1.646 0 0 1 59.694 123.699 H 44.527 V 105.723 Z" bx:shape="rect 44.527 105.723 16.813 17.976 0 1.646 1.646 0 0 1.646 1.646 0 1@2aed693c"/>
    <path style="fill: none; stroke: rgb(95, 99, 104); stroke-width: 2.1px;" d="M 14.522 103.898 H 39.983 A 2 2 0 0 1 41.983 105.898 V 123.523 A 2 2 0 0 1 39.983 125.523 H 14.522 A 10.813 10.813 0 0 1 3.709 114.711 V 114.711 A 10.813 10.813 0 0 1 14.522 103.898 Z" bx:shape="rect 3.709 103.898 38.274 21.625 10.813 2 2 10.813 1@300da5fb"/>
    <rect x="51.283" y="116.95" width="3.377" height="3.378" style="fill: rgb(255, 255, 255);"/>
    <rect x="51.282" y="109.095" width="3.379" height="3.378" style="fill: rgb(255, 255, 255);"/>
  </g>
</svg>