<?xml version="1.0" encoding="utf-8"?>
<svg version="1.0" width="512.000000pt" height="512.000000pt" viewBox="0 0 64 192" preserveAspectRatio="xMidYMid meet" xmlns="http://www.w3.org/2000/svg" xmlns:bx="https://boxy-svg.com">
  <defs>
    <linearGradient id="gradient-0" gradientUnits="userSpaceOnUse" x1="426.298" y1="247.988" x2="426.298" y2="360.115" gradientTransform="matrix(0.065593, -0.121523, 0.037181, 0.034121, 104.263076, 82.054899)">
      <stop offset="0" style="stop-color: rgba(0, 0, 0, 0);"/>
      <stop offset="1" style="stop-color: rgba(0, 0, 0, 1)"/>
    </linearGradient>
    <linearGradient id="gradient-1" gradientUnits="userSpaceOnUse" x1="426.298" y1="247.988" x2="426.298" y2="360.115" gradientTransform="matrix(0.093321, 0.090343, 0.018011, 0.070715, 98.951407, -27.876154)">
      <stop offset="0" style="stop-color: rgba(0, 0, 0, 0);"/>
      <stop offset="1" style="stop-color: rgba(0, 0, 0, 1)"/>
    </linearGradient>
    <radialGradient id="gradient-2" gradientUnits="userSpaceOnUse" cx="377.585" cy="357.384" r="55.813" gradientTransform="matrix(0.135264, 0, 0, 0.135264, -4.727832, -3.668236)">
      <stop offset="0" style="stop-color: rgba(37, 255, 255, 0);"/>
      <stop offset="1" style=""/>
    </radialGradient>
  </defs>
  <path d="M 3.766 4.701 L 8.522 4.748 L 12.022 15.186 C 13.953 20.931 16.825 29.469 18.41 34.178 L 21.267 42.732 L 22.975 37.577 L 22.975 58.111 C 22.427 58.296 21.814 58.386 21.141 58.381 C 19.525 58.381 18.065 57.564 17.249 56.246 C 16.966 55.806 -0.974 5.125 -0.974 4.795 C -0.974 4.733 1.161 4.686 3.766 4.701 Z" style="fill: rgb(0, 255, 255);"/>
  <path style="" transform="matrix(0.149023, 0, 0, 0.149023, -27.634974, -50.909245)" d="M 245.579 422.527 A 229.601 229.601 0 0 1 555.531 570.101 L 501.263 585.825 A 173.102 173.102 0 0 0 267.583 474.566 Z" bx:shape="pie 335 634 173.102 229.601 337.079 73.841 1@aa795fa2"/>
  <path d="M 7.766 4.701 L 12.522 4.748 L 16.022 15.186 C 17.953 20.931 20.825 29.469 22.41 34.178 L 25.267 42.732 L 31.577 23.693 L 37.886 4.67 L 42.658 4.67 C 45.295 4.67 47.524 4.614 47.524 4.677 C 47.524 4.755 46.833 6.647 46.095 8.766 C 44.856 12.321 36.88 35.046 32.905 46.379 L 17.679 46.379 C 13.495 34.651 6.8 15.716 4.155 8.111 L 4.155 4.725 C 5.026 4.703 6.324 4.693 7.766 4.701 Z" style=""/>
  <path style="fill: rgb(0, 255, 255);" transform="matrix(0.149023, 0, 0, 0.149023, -27.634974, -50.909245)" d="M 251.298 436.051 A 214.918 214.918 0 0 1 538.941 566.193 L 516.434 573.677 A 191.199 191.199 0 0 0 260.535 457.897 Z" bx:shape="pie 335 634 191.199 214.918 337.079 71.609 1@7b90ed6d"/>
  <rect x="141.294" y="25.204" width="6.213" height="11.396" style="fill: url(#gradient-1);" transform="matrix(0.81705, -0.576567, 0.576567, 0.81705, -89.906456, 83.207939)"/>
  <rect x="57.246" y="4.665" width="5.756" height="40.463" style=""/>
  <circle style="" cx="46.301" cy="44.67" r="16.726"/>
  <path d="M 39.529 32.845 C 44.219 30.137 49.512 30.563 53.547 33.048 L 53.547 4.665 L 60.045 4.665 L 60.045 44.884 L 60.043 44.884 C 59.975 49.695 57.382 54.122 53.207 56.533 C 44.09 61.798 32.692 55.218 32.691 44.69 C 32.691 39.804 35.298 35.288 39.529 32.845 Z M 42.881 50.729 C 47.531 53.413 53.343 50.057 53.342 44.689 C 53.342 42.197 52.013 39.895 49.855 38.649 C 45.205 35.965 39.393 39.32 39.394 44.689 C 39.394 47.181 40.723 49.483 42.881 50.729 Z" style="fill: rgb(95, 99, 104);"/>
  <path d="M 0.151 4.795 C 0.151 5.125 18.091 55.806 18.374 56.246 C 19.19 57.564 20.65 58.381 22.266 58.381 C 24.087 58.396 25.468 57.706 26.332 56.356 C 26.583 55.948 27.587 53.374 28.529 50.658 C 31.417 42.418 41.792 12.863 43.22 8.766 C 43.958 6.647 44.649 4.755 44.649 4.677 C 44.649 4.614 42.42 4.67 39.783 4.67 L 35.011 4.67 L 28.702 23.693 L 22.392 42.732 L 19.535 34.178 C 17.95 29.469 15.078 20.931 13.147 15.186 L 9.647 4.748 L 4.891 4.701 C 2.286 4.686 0.151 4.733 0.151 4.795 Z" style="fill: rgb(95, 99, 104);"/>
  <rect x="139.948" y="33" width="6.154" height="14.921" style="fill: url(#gradient-0);" transform="matrix(0.99966, 0.026062, -0.026062, 0.99966, -91.606819, -5.948788)"/>
  <circle style="fill: rgb(0, 255, 255);" cx="46.346" cy="44.673" r="6.977"/>
  <circle style="fill: url(#gradient-2);" cx="46.346" cy="44.673" r="6.977"/>
  <path d="M 20.605 111.003 C 30.231 110.996 29.847 110.98 30.807 111.465 C 31.715 111.926 32.422 112.856 32.676 113.933 C 32.845 114.663 32.845 142.694 32.676 143.425 C 32.338 144.862 31.292 145.908 29.854 146.246 C 29.147 146.408 8.573 146.415 7.796 146.254 C 6.32 145.939 5.229 144.847 4.913 143.371 C 4.837 142.994 4.806 142.179 4.806 140.142 L 4.806 137.428 L 5.436 136.759 C 5.782 136.397 6.374 135.783 6.743 135.406 L 7.42 134.706 L 7.405 132.6 L 7.381 130.486 L 6.228 130.462 C 5.16 130.447 5.067 130.431 4.945 130.285 C 4.821 130.139 4.806 129.901 4.806 127.779 L 4.806 125.442 L 5.213 125.004 C 5.429 124.765 6.259 123.881 7.058 123.051 L 8.496 121.529 L 8.496 117.892 C 8.496 113.956 8.512 113.802 8.927 112.979 C 9.373 112.103 10.487 111.273 11.456 111.088 C 11.687 111.042 15.415 111.011 20.605 111.003 Z M 16.031 114.017 L 15.839 114.117 L 15.815 117.138 C 15.808 119.307 15.823 120.198 15.885 120.268 C 16 120.414 18.106 120.421 18.245 120.283 C 18.314 120.214 18.337 119.422 18.337 117.177 C 18.337 114.509 18.322 114.155 18.214 114.063 C 18.045 113.925 16.292 113.887 16.031 114.017 Z M 23.565 114.017 L 23.373 114.117 L 23.35 117.093 C 23.342 119.084 23.358 120.121 23.411 120.229 C 23.488 120.368 23.565 120.375 24.626 120.36 C 25.725 120.337 25.756 120.329 25.841 120.152 C 25.91 120.022 25.933 119.192 25.926 117.1 C 25.91 114.509 25.895 114.217 25.78 114.102 C 25.61 113.925 23.865 113.863 23.565 114.017 Z M 13.263 114.686 C 12.363 114.686 12.248 114.701 12.11 114.84 C 11.964 114.986 11.956 115.094 11.956 117.554 C 11.956 119.945 11.964 120.129 12.094 120.245 C 12.209 120.352 12.417 120.375 13.324 120.375 C 14.316 120.375 14.416 120.36 14.493 120.229 C 14.539 120.129 14.57 119.138 14.57 117.538 C 14.57 115.094 14.562 114.986 14.416 114.84 C 14.278 114.701 14.162 114.686 13.263 114.686 Z M 20.836 114.686 C 20.121 114.686 19.867 114.717 19.736 114.809 L 19.567 114.924 L 19.567 117.562 C 19.567 119.507 19.59 120.214 19.66 120.283 C 19.79 120.414 21.882 120.414 22.012 120.283 C 22.081 120.214 22.105 119.507 22.105 117.562 L 22.105 114.924 L 21.935 114.809 C 21.805 114.717 21.551 114.686 20.836 114.686 Z M 28.409 114.686 C 26.979 114.686 27.102 114.409 27.102 117.538 C 27.102 119.138 27.132 120.129 27.179 120.229 C 27.256 120.36 27.355 120.375 28.363 120.375 C 29.331 120.375 29.477 120.36 29.585 120.237 C 29.7 120.106 29.716 119.807 29.716 117.546 C 29.716 115.094 29.708 114.986 29.562 114.84 C 29.424 114.701 29.308 114.686 28.409 114.686 Z" style="fill: rgb(95, 99, 104);"/>
  <g transform="matrix(0, -1, 1, 0, -65.2798, 158.080887)">
    <path style="fill: rgb(95, 99, 104);" d="M 44.527 105.723 H 59.694 A 1.646 1.646 0 0 1 61.34 107.369 V 122.053 A 1.646 1.646 0 0 1 59.694 123.699 H 44.527 V 105.723 Z" bx:shape="rect 44.527 105.723 16.813 17.976 0 1.646 1.646 0 0 1.646 1.646 0 1@2aed693c"/>
    <path style="fill: none; stroke: rgb(95, 99, 104); stroke-width: 2.1px;" d="M 14.522 103.898 H 39.983 A 2 2 0 0 1 41.983 105.898 V 123.523 A 2 2 0 0 1 39.983 125.523 H 14.522 A 10.813 10.813 0 0 1 3.709 114.711 V 114.711 A 10.813 10.813 0 0 1 14.522 103.898 Z" bx:shape="rect 3.709 103.898 38.274 21.625 10.813 2 2 10.813 1@300da5fb"/>
    <rect x="51.283" y="116.95" width="3.377" height="3.378" style="fill: rgb(255, 255, 255);"/>
    <rect x="51.282" y="109.095" width="3.379" height="3.378" style="fill: rgb(255, 255, 255);"/>
  </g>
  <g transform="matrix(0.009329, 0, 0, -0.009329, 2.02978, 190.012192)" fill="#000000" stroke="none" style="">
    <path d="M624 4155 c-202 -44 -377 -215 -429 -420 -13 -52 -15 -255 -15 -1595 0 -1340 2 -1543 15 -1595 53 -206 229 -377 434 -420 105 -22 2400 -22 2503 0 205 43 370 199 435 410 17 57 18 124 18 1300 l0 1240 -23 80 c-31 107 -85 206 -152 279 -30 33 -174 180 -320 327 -288 289 -329 321 -485 376 l-80 28 -920 2 c-736 1 -932 -1 -981 -12z m1879 -230 c122 -32 145 -50 464 -368 250 -249 307 -311 332 -361 64 -128 62 -62 59 -1387 l-3 -1204 -26 -55 c-39 -82 -90 -135 -167 -172 l-67 -33 -1180 -3 c-864 -2 -1195 0 -1235 8 -102 22 -187 87 -238 183 l-27 52 0 1555 0 1555 28 53 c49 92 131 159 224 181 21 5 430 9 908 10 742 1 879 -1 928 -14z" style="fill: rgb(95, 99, 104);"/>
    <path d="M1725 2825 c-351 -56 -654 -282 -799 -596 -65 -141 -87 -238 -93 -405 -6 -160 6 -250 48 -379 121 -366 454 -646 839 -706 107 -16 324 -6 424 20 385 102 679 405 766 791 52 234 28 461 -74 675 -60 127 -115 206 -210 301 -152 152 -325 245 -535 289 -109 23 -261 27 -366 10z m571 -413 c97 -63 204 -186 257 -294 75 -154 83 -223 32 -274 -56 -56 -153 -16 -169 70 -20 108 -110 240 -220 320 -79 59 -86 69 -86 123 0 25 8 43 29 64 42 41 83 39 157 -9z m-314 -362 c76 -28 122 -71 159 -145 29 -59 31 -71 27 -137 -6 -84 -28 -135 -84 -190 -211 -211 -563 -1 -479 287 13 46 28 70 74 116 87 87 192 111 303 69z m-686 -379 c20 -12 36 -35 48 -67 43 -115 146 -248 225 -288 61 -32 89 -103 61 -157 -17 -30 -68 -52 -106 -45 -64 13 -212 143 -287 253 -53 79 -100 199 -93 238 14 71 90 104 152 66z" style="fill: rgb(95, 99, 104);"/>
    <path d="M1794 1866 c-30 -30 -34 -40 -34 -84 0 -44 5 -55 34 -86 30 -32 39 -36 84 -36 39 0 57 6 81 25 62 53 62 137 0 190 -24 19 -42 25 -81 25 -44 0 -54 -4 -84 -34z" style="fill: rgb(95, 99, 104);"/>
  </g>
  <g transform="matrix(1, 0, 0, 1, 0.045702, 23.863007)">
    <path d="M 56.965 165.137 L 41.802 165.137 C 40.908 165.118 40.01 164.736 39.424 164.151 C 38.839 163.565 38.458 162.665 38.438 161.771 L 38.438 139.61 C 38.458 138.717 38.839 137.819 39.424 137.234 C 40.01 136.648 40.91 136.266 41.805 136.246 L 56.968 136.246 C 57.862 136.266 58.754 136.653 59.345 137.234 C 59.925 137.824 60.313 138.719 60.332 139.613 L 60.332 161.774 C 60.313 162.668 59.925 163.56 59.345 164.151 C 58.754 164.731 57.859 165.118 56.965 165.137 Z M 41.805 138.315 C 41.42 138.293 41.15 138.434 40.888 138.695 C 40.626 138.958 40.486 139.223 40.507 139.607 L 40.507 161.771 C 40.486 162.156 40.626 162.426 40.888 162.688 C 41.15 162.949 41.415 163.09 41.799 163.069 L 56.965 163.069 C 57.35 163.09 57.62 162.949 57.882 162.688 C 58.144 162.426 58.284 162.161 58.264 161.776 L 58.264 139.613 C 58.284 139.228 58.144 138.958 57.882 138.695 C 57.62 138.434 57.355 138.293 56.97 138.315 Z" style="fill: rgb(95, 99, 104);"/>
    <path d="M 49.385 149.976 C 48.649 149.976 47.902 149.635 47.417 149.161 C 46.943 148.677 46.601 147.929 46.601 147.193 C 46.601 146.457 46.943 145.71 47.417 145.225 C 47.902 144.751 48.649 144.409 49.385 144.409 C 50.12 144.409 50.869 144.751 51.353 145.225 C 51.827 145.71 52.169 146.457 52.169 147.193 C 52.169 147.929 51.832 148.682 51.353 149.161 C 50.873 149.64 50.12 149.976 49.385 149.976 Z M 49.89 146.689 C 49.74 146.529 49.614 146.479 49.385 146.479 C 49.155 146.479 49.029 146.529 48.88 146.689 C 48.72 146.838 48.67 146.964 48.67 147.193 C 48.67 147.422 48.726 147.544 48.88 147.698 C 49.034 147.853 49.155 147.908 49.385 147.908 C 49.614 147.908 49.735 147.853 49.889 147.698 C 50.044 147.544 50.099 147.422 50.099 147.193 C 50.099 146.964 50.049 146.838 49.89 146.689 Z" style="fill: rgb(95, 99, 104);"/>
    <path d="M 49.385 155.583 C 49.289 155.583 49.195 155.576 49.108 155.57 C 48.906 155.548 48.675 155.444 48.537 155.306 C 48.398 155.166 48.3 154.926 48.3 154.712 C 48.316 154.518 48.398 154.294 48.523 154.16 C 48.65 154.024 48.889 153.938 49.11 153.951 L 49.077 153.949 L 49.081 153.949 C 49.089 153.949 49.224 153.956 49.22 153.955 C 49.281 153.961 49.331 153.964 49.385 153.964 C 51.269 153.964 52.933 153.217 54.171 151.979 C 55.41 150.741 56.156 149.077 56.156 147.193 C 56.156 145.31 55.41 143.645 54.171 142.407 C 52.933 141.168 51.269 140.422 49.385 140.422 C 47.501 140.422 45.837 141.168 44.599 142.407 C 43.36 143.645 42.613 145.31 42.613 147.193 C 42.613 148.668 43.072 150.021 43.894 151.158 C 44.716 152.295 45.856 153.161 47.258 153.618 C 47.452 153.693 47.642 153.853 47.727 154.023 C 47.812 154.192 47.828 154.44 47.772 154.64 C 47.698 154.834 47.539 155.023 47.37 155.109 C 47.201 155.194 46.952 155.21 46.749 155.153 C 45.043 154.582 43.583 153.489 42.583 152.105 C 41.582 150.721 40.995 148.992 40.995 147.193 C 40.995 144.896 41.95 142.771 43.456 141.264 C 44.963 139.758 47.089 138.804 49.385 138.804 C 51.681 138.804 53.807 139.758 55.314 141.264 C 56.82 142.771 57.774 144.896 57.774 147.193 C 57.774 149.491 56.82 151.616 55.314 153.123 C 53.807 154.629 51.681 155.583 49.385 155.583 Z" style="fill: rgb(95, 99, 104);"/>
    <path d="M 45.886 160.245 C 45.249 160.245 44.573 159.978 44.078 159.498 C 43.598 159.004 43.33 158.326 43.33 157.688 C 43.33 157.051 43.609 156.364 44.089 155.87 L 50.017 150.666 C 50.154 150.556 50.35 150.473 50.514 150.466 C 50.678 150.459 50.881 150.523 51.027 150.621 C 51.165 150.73 51.288 150.903 51.332 151.06 C 51.375 151.219 51.357 151.43 51.294 151.594 L 48.254 158.653 C 48.131 158.954 47.935 159.255 47.695 159.498 C 47.2 159.978 46.524 160.245 45.886 160.245 Z M 48.391 154.246 L 45.186 157.058 C 45.022 157.215 44.946 157.421 44.946 157.688 C 44.946 157.956 45.025 158.17 45.221 158.354 C 45.41 158.557 45.628 158.63 45.887 158.63 C 46.144 158.63 46.363 158.557 46.551 158.354 C 46.648 158.26 46.71 158.166 46.76 158.035 Z" style="fill: rgb(95, 99, 104);"/>
  </g>
</svg>