<?xml version="1.0" encoding="utf-8"?>
<svg version="1.0" width="512.000000pt" height="512.000000pt" viewBox="0 0 512.000000 512.000000" preserveAspectRatio="xMidYMid meet" xmlns="http://www.w3.org/2000/svg" xmlns:bx="https://boxy-svg.com">
  <defs>
    <linearGradient id="gradient-0" gradientUnits="userSpaceOnUse" x1="426.298" y1="247.988" x2="426.298" y2="360.115" gradientTransform="matrix(0.524742, -0.972183, 0.297451, 0.272969, 834.104549, 656.43916)">
      <stop offset="0" style="stop-color: rgba(0, 0, 0, 0);"/>
      <stop offset="1" style="stop-color: rgba(0, 0, 0, 1)"/>
    </linearGradient>
    <linearGradient id="gradient-1" gradientUnits="userSpaceOnUse" x1="426.298" y1="247.988" x2="426.298" y2="360.115" gradientTransform="matrix(0.746565, 0.722743, 0.144091, 0.565718, 791.611146, -223.009216)">
      <stop offset="0" style="stop-color: rgba(0, 0, 0, 0);"/>
      <stop offset="1" style="stop-color: rgba(0, 0, 0, 1)"/>
    </linearGradient>
    <radialGradient id="gradient-2" gradientUnits="userSpaceOnUse" cx="377.585" cy="357.384" r="55.813" gradientTransform="matrix(1.082113, 0, 0, 1.082113, -31.004654, -29.345889)">
      <stop offset="0" style="stop-color: rgba(37, 255, 255, 0);"/>
      <stop offset="1" style=""/>
    </radialGradient>
  </defs>
  <path d="M 36.947 37.609 L 74.993 37.986 L 102.994 121.487 C 118.439 167.444 141.418 235.752 154.1 273.422 L 176.953 341.855 L 190.62 300.616 L 190.62 464.889 C 186.23 466.366 181.329 467.091 175.948 467.044 C 163.015 467.044 151.337 460.515 144.808 449.967 C 142.548 446.451 -0.974 40.999 -0.974 38.363 C -0.974 37.86 16.103 37.484 36.947 37.609 Z" style="fill: rgb(0, 255, 255);"/>
  <path style="" transform="matrix(1.192181, 0, 0, 1.192181, -214.261795, -407.273956)" d="M 245.579 422.527 A 229.601 229.601 0 0 1 555.531 570.101 L 501.263 585.825 A 173.102 173.102 0 0 0 267.583 474.566 Z" bx:shape="pie 335 634 173.102 229.601 337.079 73.841 1@aa795fa2"/>
  <path d="M 68.947 37.609 L 106.993 37.986 L 134.994 121.487 C 150.439 167.444 173.418 235.752 186.1 273.422 L 208.953 341.855 L 259.43 189.544 L 309.908 37.358 L 348.08 37.358 C 369.175 37.358 387.011 36.91 387.011 37.413 C 387.011 38.04 381.48 53.179 375.578 70.131 C 365.663 98.569 301.855 280.365 270.055 371.028 L 148.252 371.028 C 114.78 277.204 61.221 125.724 40.054 64.89 L 40.054 37.798 C 47.026 37.624 57.409 37.54 68.947 37.609 Z" style=""/>
  <path style="fill: rgb(0, 255, 255);" transform="matrix(1.192181, 0, 0, 1.192181, -214.261795, -407.273956)" d="M 251.298 436.051 A 214.918 214.918 0 0 1 538.941 566.193 L 516.434 573.677 A 191.199 191.199 0 0 0 260.535 457.897 Z" bx:shape="pie 335 634 191.199 214.918 337.079 71.609 1@7b90ed6d"/>
  <rect x="1130.35" y="201.629" width="49.707" height="91.164" style="fill: url(#gradient-1);" transform="matrix(0.81705, -0.576567, 0.576567, 0.81705, -712.433655, 665.663513)"/>
  <rect x="464.789" y="37.318" width="46.049" height="323.705" style=""/>
  <circle style="" cx="377.226" cy="357.357" r="133.804"/>
  <path d="M 667 668 m -87.136 0 a 87.136 87.136 0 1 0 174.272 0 a 87.136 87.136 0 1 0 -174.272 0 Z M 667 668 m -44.435 0 a 44.435 44.435 0 0 1 88.87 0 a 44.435 44.435 0 0 1 -88.87 0 Z" style="fill: rgb(216, 216, 216);" transform="matrix(1, -0.000057, 0.000057, 1, -9.914092, 120.874154)" bx:shape="ring 667 668 44.435 44.435 87.136 87.136 1@1a1fc8cb"/>
  <rect x="702.865" y="533.835" width="41.4" height="256.245" style="fill: rgb(216, 216, 216);"/>
  <path d="M 323.049 262.76 C 360.57 241.095 402.915 244.503 435.196 264.385 L 435.196 37.318 L 487.18 37.318 L 487.18 359.074 L 487.162 359.074 C 486.615 397.56 465.87 432.977 432.472 452.263 C 359.534 494.38 268.353 441.744 268.348 357.518 C 268.345 318.428 289.198 282.307 323.049 262.76 Z M 349.866 405.833 C 387.064 427.306 433.558 400.459 433.556 357.508 C 433.555 337.575 422.919 319.157 405.655 309.19 C 368.458 287.716 321.963 314.563 321.966 357.514 C 321.967 377.448 332.602 395.867 349.866 405.833 Z" style="fill: rgb(95, 99, 104);"/>
  <path d="M 8.026 38.363 C 8.026 40.999 151.548 446.451 153.808 449.967 C 160.337 460.515 172.015 467.044 184.948 467.044 C 199.514 467.17 210.564 461.645 217.47 450.846 C 219.479 447.581 227.515 426.989 235.049 405.266 C 258.153 339.344 341.152 102.903 352.578 70.131 C 358.48 53.179 364.011 38.04 364.011 37.413 C 364.011 36.91 346.175 37.358 325.08 37.358 L 286.908 37.358 L 236.43 189.544 L 185.953 341.855 L 163.1 273.422 C 150.418 235.752 127.439 167.444 111.994 121.487 L 83.993 37.986 L 45.947 37.609 C 25.103 37.484 8.026 37.86 8.026 38.363 Z" style="fill: rgb(95, 99, 104);"/>
  <rect x="1119.588" y="264.003" width="49.234" height="119.368" style="fill: url(#gradient-0);" transform="matrix(0.99966, 0.026062, -0.026062, 0.99966, -726.03656, -47.590302)"/>
  <circle style="fill: rgb(0, 255, 255);" cx="377.585" cy="357.384" r="55.813"/>
  <circle style="fill: url(#gradient-2);" cx="377.585" cy="357.384" r="55.813"/>
</svg>